<!-- Generator: Adobe Illustrator 27.9.0, SVG Export Plug-In . SVG Version: 6.00 Build 0)  -->
<svg version="1.1" id="Layer_1" xmlns="http://www.w3.org/2000/svg" xmlns:xlink="http://www.w3.org/1999/xlink" x="0px" y="0px"
	 viewBox="0 0 64 80" style="enable-background:new 0 0 64 80;" xml:space="preserve" >
<g>
	<path fill="#FFAE00" d="M13,57c0-2.2-1.8-4-4-4s-4,1.8-4,4s1.8,4,4,4S13,59.2,13,57z M9,59c-1.1,0-2-0.9-2-2s0.9-2,2-2s2,0.9,2,2S10.1,59,9,59z"/>
	<path fill="#FFAE00" d="M23,57c0-2.2-1.8-4-4-4s-4,1.8-4,4s1.8,4,4,4S23,59.2,23,57z M19,59c-1.1,0-2-0.9-2-2s0.9-2,2-2s2,0.9,2,2S20.1,59,19,59z"
		/>
	<path fill="#FFAE00" d="M33,57c0-2.2-1.8-4-4-4s-4,1.8-4,4s1.8,4,4,4S33,59.2,33,57z M29,59c-1.1,0-2-0.9-2-2s0.9-2,2-2s2,0.9,2,2S30.1,59,29,59z"
		/>
	<path fill="#FFAE00" d="M54.8,36c-0.3-0.8-1-1.5-1.8-1.8V14.9c3.4-0.5,6-3.4,6-6.9c0-3.9-3.1-7-7-7c-2.8,0-5.3,1.7-6.4,4.1L10.1,17.2L5.2,39H4
		c-1.7,0-3,1.3-3,3v4c0,1.7,1.3,3,3,3h10v2H7c-3.3,0-6,2.7-6,6s2.7,6,6,6h24c3.3,0,6-2.7,6-6c0-3-2.2-5.4-5-5.9V49h0.3
		c2.6,0,4.7-2.1,4.7-4.7c0-0.3,0-0.6-0.1-0.9l-2.4-12.7c-0.2-1.3-1-2.4-2-3l16.2-13.6c0.7,0.4,1.5,0.7,2.4,0.8v19.3
		c-0.8,0.3-1.5,1-1.8,1.8H41v6v2v6h8.2c0.4,1.2,1.5,2,2.8,2s2.4-0.8,2.8-2H63v-6v-2v-6H54.8z M52,3c2.8,0,5,2.2,5,5s-2.2,5-5,5
		s-5-2.2-5-5S49.2,3,52,3z M36.7,21.6L32,17.8l5-2.7v6.2L36.7,21.6z M39,14.1l1.6-0.8l3.9,1.8L39,19.7V14.1z M42.8,12.1l2.7-1.5
		c0.3,0.9,0.9,1.6,1.5,2.3l-0.8,0.7L42.8,12.1z M45,8.6l-28,15V23c0-2.1-1.1-4-2.8-5L45,7.4c0,0.2,0,0.4,0,0.6C45,8.2,45,8.4,45,8.6
		z M24.1,27l-2.8-3.4l4.8-2.6V27H24.1z M17,25.9l2.4-1.3l2,2.4H20c-1.1,0-2.2,0.4-3,1V25.9z M11.8,19.1c1.8,0.4,3.2,2,3.2,3.9v9v7
		H7.3L11.8,19.1z M35,57c0,2.2-1.8,4-4,4h-2H19H9H7c-2.2,0-4-1.8-4-4s1.8-4,4-4h2h10h10h2C33.2,53,35,54.8,35,57z M30,51H16v-2h14
		V51z M32.3,47H4c-0.6,0-1-0.4-1-1v-4c0-0.6,0.4-1,1-1h13v-9c0-1.7,1.3-3,3-3h10c1.2,0,2.3,0.8,2.6,2H21c-1.1,0-2,0.9-2,2v8h15.4
		l0.5,2.9c0,0.2,0,0.3,0,0.5C35,45.8,33.8,47,32.3,47z M32.9,33l1.1,6H21v-6H32.9z M30,27h-2v-7l2.1-1.1l5,4.1L30.3,27
		C30.2,27,30.1,27,30,27z M43,38h6v4h-6V38z M43,44h6v4h-6V44z M53,49c0,0.6-0.4,1-1,1s-1-0.4-1-1V37c0-0.6,0.4-1,1-1s1,0.4,1,1V49z
		 M61,48h-6v-4h6V48z M55,42v-4h6v4H55z"/>
	<path fill="#FFAE00" d="M52,11c1.7,0,3-1.3,3-3s-1.3-3-3-3s-3,1.3-3,3S50.3,11,52,11z M52,7c0.6,0,1,0.4,1,1s-0.4,1-1,1s-1-0.4-1-1S51.4,7,52,7z"
		/>
</g>
</svg>
